custom-analysis
version=1
nRows=4
nColumns=98
inDegrees=no

This file contains tibia displacement and acting force.

Units are S.I. units (seconds, meters, Newtons, ...)
Angles are in degrees.

endheader
time	APT	SIT	knee_angle	aACL_R_force	pACL_R_force	aPCL_R_force	pPCL_R_force	aMCL_R_force	mMCL_R_force	pMCL_R_force	aLCL_R_force	mLCL_R_force	pLCL_R_force	aPCL_L_force	pPCL_L_force	aMCL_L_force	aLCL_L_force	aACL_R_length	pACL_R_length	aPCL_R_length	pPCL_R_length	aMCL_R_length	mMCL_R_length	pMCL_R_length	aLCL_R_length	mLCL_R_length	pLCL_R_length	aPCL_L_length	pPCL_L_length	aMCL_L_length	aLCL_L_length	aACL_R_strain	pACL_R_strain	aPCL_R_strain	pPCL_R_strain	aMCL_R_strain	mMCL_R_strain	pMCL_R_strain	aLCL_R_strain	mLCL_R_strain	pLCL_R_strain	aPCL_L_strain	pPCL_L_strain	aMCL_L_strain	aLCL_L_strain	femur_lat_meniscii_r.femur_lat_r.force.X	femur_lat_meniscii_r.femur_lat_r.force.Y	femur_lat_meniscii_r.femur_lat_r.force.Z	femur_lat_meniscii_r.femur_lat_r.torque.X	femur_lat_meniscii_r.femur_lat_r.torque.Y	femur_lat_meniscii_r.femur_lat_r.torque.Z	femur_lat_meniscii_r.meniscus_lat_r.force.X	femur_lat_meniscii_r.meniscus_lat_r.force.Y	femur_lat_meniscii_r.meniscus_lat_r.force.Z	femur_lat_meniscii_r.meniscus_lat_r.torque.X	femur_lat_meniscii_r.meniscus_lat_r.torque.Y	femur_lat_meniscii_r.meniscus_lat_r.torque.Z	femur_med_meniscii_r.femur_med_r.force.X	femur_med_meniscii_r.femur_med_r.force.Y	femur_med_meniscii_r.femur_med_r.force.Z	femur_med_meniscii_r.femur_med_r.torque.X	femur_med_meniscii_r.femur_med_r.torque.Y	femur_med_meniscii_r.femur_med_r.torque.Z	femur_med_meniscii_r.meniscus_med_r.force.X	femur_med_meniscii_r.meniscus_med_r.force.Y	femur_med_meniscii_r.meniscus_med_r.force.Z	femur_med_meniscii_r.meniscus_med_r.torque.X	femur_med_meniscii_r.meniscus_med_r.torque.Y	femur_med_meniscii_r.meniscus_med_r.torque.Z	femur_med_tibia_r.tibia_upper_r.force.X	femur_med_tibia_r.tibia_upper_r.force.Y	femur_med_tibia_r.tibia_upper_r.force.Z	femur_med_tibia_r.tibia_upper_r.torque.X	femur_med_tibia_r.tibia_upper_r.torque.Y	femur_med_tibia_r.tibia_upper_r.torque.Z	femur_med_tibia_r.femur_med_r.force.X	femur_med_tibia_r.femur_med_r.force.Y	femur_med_tibia_r.femur_med_r.force.Z	femur_med_tibia_r.femur_med_r.torque.X	femur_med_tibia_r.femur_med_r.torque.Y	femur_med_tibia_r.femur_med_r.torque.Z	femur_lat_tibia_r.tibia_upper_r.force.X	femur_lat_tibia_r.tibia_upper_r.force.Y	femur_lat_tibia_r.tibia_upper_r.force.Z	femur_lat_tibia_r.tibia_upper_r.torque.X	femur_lat_tibia_r.tibia_upper_r.torque.Y	femur_lat_tibia_r.tibia_upper_r.torque.Z	femur_lat_tibia_r.femur_lat_r.force.X	femur_lat_tibia_r.femur_lat_r.force.Y	femur_lat_tibia_r.femur_lat_r.force.Z	femur_lat_tibia_r.femur_lat_r.torque.X	femur_lat_tibia_r.femur_lat_r.torque.Y	femur_lat_tibia_r.femur_lat_r.torque.Z	femur_lat_meniscii_force_r	femur_med_meniscii_force_r	femur_lat_tibia_force_r	femur_med_tibia_force_r
      0.16280631	      0.01273913	      0.01694002	     55.95607220	     -2.83820009	      0.00000000	    560.65447331	    366.66147393	      0.00000000	      0.00000000	      0.00000000	      0.00000000	      0.00000000	      0.00000000	      0.00000000	      0.00000000	      0.00000001	      0.00000000	      0.03124515	      0.02395605	      0.03484763	      0.03237270	      0.05944572	      0.05918811	      0.05633058	      0.05261541	      0.04792863	      0.04307162	      0.01525851	      0.01651186	      0.06550154	      0.04489616	      0.00772939	     -0.04400286	      0.12067180	      0.08314096	     -0.00968370	     -0.01012473	     -0.04082236	     -0.06005646	     -0.14897343	     -0.17712270	      0.00000079	     -0.32847694	      0.00000060	     -0.00000086	    100.88858890	    188.70857856	     21.52548130	    -13.22419543	      2.44308062	     39.40128231	   -100.88858890	   -188.70857856	    -21.52548130	      5.19836520	     -3.03025050	      3.36285702	     24.12574214	     23.09231983	     12.74033208	     -4.61141015	     -0.55276877	      9.68714282	    -24.12574214	    -23.09231983	    -12.74033208	     -0.27176184	      0.25862374	      0.09302919	   -735.50205995	   -695.49259320	    219.19857239	    -16.10330960	     16.63716638	     -1.22810065	    735.50205995	    695.49259320	   -219.19857239	    101.75802822	    -13.30236467	    299.21613573	      0.00000000	      0.00000000	      0.00000000	      0.00000000	      0.00000000	      0.00000000	      0.00000000	      0.00000000	      0.00000000	      0.00000000	      0.00000000	      0.00000000	    215.06459806	     35.74384885	      0.00000000	   1035.72256976
      0.16304672	      0.01275546	      0.01698575	     56.08543888	     -2.81607581	      0.00000000	    563.13170076	    367.80034333	      0.00000000	      0.00000000	      0.00000000	      0.00000000	      0.00000000	      0.00000000	      0.00000000	      0.00000000	      0.00000001	      0.00000000	      0.03124314	      0.02395508	      0.03486216	      0.03238103	      0.05945791	      0.05919033	      0.05632610	      0.05260790	      0.04791530	      0.04305493	      0.01525851	      0.01651186	      0.06550154	      0.04489616	      0.00766449	     -0.04404158	      0.12113905	      0.08341951	     -0.00948050	     -0.01008757	     -0.04089877	     -0.06019066	     -0.14921000	     -0.17744159	      0.00000079	     -0.32847694	      0.00000060	     -0.00000086	    100.85843463	    188.02807701	     22.07726801	    -13.43907674	      2.44700864	     39.38707903	   -100.85843463	   -188.02807701	    -22.07726801	      5.19905764	     -3.04661716	      3.36362110	     24.31867608	     23.07006510	     12.64401137	     -4.57221663	     -0.55648256	      9.76293711	    -24.31867608	    -23.07006510	    -12.64401137	     -0.27417797	      0.26335308	      0.09314519	   -737.65778849	   -694.88969174	    219.81846128	    -16.08639206	     16.69035155	     -1.20334395	    737.65778849	    694.88969174	   -219.81846128	    101.98938169	    -13.33869417	    300.06833070	      0.00000000	      0.00000000	      0.00000000	      0.00000000	      0.00000000	      0.00000000	      0.00000000	      0.00000000	      0.00000000	      0.00000000	      0.00000000	      0.00000000	    214.50964394	     35.82592544	      0.00000000	   1036.98160665
      0.16375017	      0.01280288	      0.01711984	     56.46406110	     -2.73683267	      0.00000000	    570.31155548	    371.10865401	      0.00000000	      0.00000000	      0.00000000	      0.00000000	      0.00000000	      0.00000000	      0.00000000	      0.00000000	      0.00000001	      0.00000000	      0.03123736	      0.02395241	      0.03490431	      0.03240518	      0.05949353	      0.05919691	      0.05631326	      0.05258543	      0.04787595	      0.04300586	      0.01525851	      0.01651186	      0.06550154	      0.04489616	      0.00747807	     -0.04414800	      0.12249475	      0.08422766	     -0.00888718	     -0.00997748	     -0.04111730	     -0.06059201	     -0.14990877	     -0.17837896	      0.00000079	     -0.32847694	      0.00000060	     -0.00000086	    102.11304305	    189.32787149	     23.04565842	    -13.87516713	      2.47977980	     39.86384879	   -102.11304305	   -189.32787149	    -23.04565842	      5.26265570	     -3.10490312	      3.43294059	     24.34795323	     22.59451675	     12.31135604	     -4.44974450	     -0.55294618	      9.76849651	    -24.34795323	    -22.59451675	    -12.31135604	     -0.27000679	      0.26467974	      0.09471629	   -746.05445548	   -691.66970751	    220.76774430	    -16.00093565	     16.85990467	     -1.23858518	    746.05445548	    691.66970751	   -220.76774430	    102.29478810	    -13.47959965	    303.44744226	      0.00000000	      0.00000000	      0.00000000	      0.00000000	      0.00000000	      0.00000000	      0.00000000	      0.00000000	      0.00000000	      0.00000000	      0.00000000	      0.00000000	    216.34051599	     35.42463128	      0.00000000	   1041.02960177
      0.16390452	      0.01281320	      0.01714932	     56.54715873	     -2.71807053	      0.00000000	    571.86458134	    371.80591761	      0.00000000	      0.00000000	      0.00000000	      0.00000000	      0.00000000	      0.00000000	      0.00000000	      0.00000000	      0.00000001	      0.00000000	      0.03123612	      0.02395186	      0.03491349	      0.03241044	      0.05950132	      0.05919837	      0.05631050	      0.05258040	      0.04786724	      0.04299505	      0.01525851	      0.01651186	      0.06550154	      0.04489616	      0.00743804	     -0.04416969	      0.12278983	      0.08440354	     -0.00875733	     -0.00995312	     -0.04116431	     -0.06068187	     -0.15006346	     -0.17858559	      0.00000079	     -0.32847694	      0.00000060	     -0.00000086	    102.18583148	    189.34545399	     23.01934385	    -13.86672170	      2.47977623	     39.88722935	   -102.18583148	   -189.34545399	    -23.01934385	      5.26426472	     -3.10534541	      3.44579984	     24.46136082	     22.55113839	     12.23946393	     -4.42196316	     -0.55490254	      9.81281698	    -24.46136082	    -22.55113839	    -12.23946393	     -0.27032566	      0.26753033	      0.09450746	   -747.58953751	   -690.51928153	    221.63205117	    -15.99618878	     16.91227383	     -1.25034727	    747.58953751	    690.51928153	   -221.63205117	    102.62852815	    -13.51181289	    304.06536888	      0.00000000	      0.00000000	      0.00000000	      0.00000000	      0.00000000	      0.00000000	      0.00000000	      0.00000000	      0.00000000	      0.00000000	      0.00000000	      0.00000000	    216.38746565	     35.45019737	      0.00000000	   1041.55065209
